<svg class="page showed" xmlns="http://www.w3.org/2000/svg" xmlns:xlink="http://www.w3.org/1999/xlink" width="800px" height="800px" fill="none">
    <metadata xmlns="http://www.w3.org/2000/svg">
        <rdf:RDF xmlns:rdf="http://www.w3.org/1999/02/22-rdf-syntax-ns#" xmlns:rdfs="http://www.w3.org/2000/01/rdf-schema#" xmlns:dc="http://purl.org/dc/elements/1.1/">
            <rdf:Description dc:title="Bel Art - logo">
                <dc:creator>
                    <rdf:Bag>
                        <rdf:li>n4n5</rdf:li>
                    </rdf:Bag>
                </dc:creator>
            </rdf:Description>
        </rdf:RDF>
    </metadata>
    <ellipse rx="400" ry="400" cx="400" cy="400" fill="black" />
    <g fill="white" transform="translate(105,320)" stroke="white" stroke-width="5">
        <path class="svg-logo-path-drawing" d="M149.417332 27.183594L151.343113 29.507813Q150.280613 30.835938 149.317722 32.064453Q148.354832 33.292969 147.425144 34.621094L147.425144 34.621094Q154.132175 37.078125 158.249363 40.697266Q162.366550 44.316406 164.624363 48.267578Q166.882175 52.218750 167.645847 56.037109Q168.409519 59.855469 168.409519 62.644531L168.409519 62.644531Q168.409519 66.562500 167.114597 70.115234Q165.819675 73.667969 163.661472 76.589844Q161.503269 79.511719 158.647800 81.669922Q155.792332 83.828125 152.671238 84.957031L152.671238 84.957031Q159.112644 90.269531 162.266941 96.777344Q165.421238 103.285156 165.421238 109.925781L165.421238 109.925781Q165.421238 115.503906 163.130222 120.484375Q160.839207 125.464844 156.921238 129.183594Q153.003269 132.902344 147.657566 135.093750Q142.311863 137.285156 136.268894 137.285156L136.268894 137.285156Q131.022800 137.285156 126.606785 135.591797Q122.190769 133.898438 118.704441 130.976563Q115.218113 128.054688 112.661472 124.070313Q110.104832 120.085938 108.643894 115.570313L108.643894 115.570313L111.964207 114.574219Q114.421238 122.542969 120.065769 126.892578Q125.710300 131.242188 133.679050 131.242188L133.679050 131.242188Q138.593113 131.242188 143.075535 129.416016Q147.557957 127.589844 150.944675 124.435547Q154.331394 121.281250 156.323582 116.998047Q158.315769 112.714844 158.315769 107.734375L158.315769 107.734375Q158.315769 104.347656 157.386082 101.292969Q156.456394 98.238281 154.929050 95.515625Q153.401707 92.792969 151.509129 90.501953Q149.616550 88.210938 147.624363 86.417969L147.624363 86.417969Q145.831394 86.750000 144.038425 86.949219Q142.245457 87.148438 140.518894 87.148438L140.518894 87.148438Q138.128269 87.148438 135.638035 86.783203Q133.147800 86.417969 131.122410 85.687500Q129.097019 84.957031 127.802097 83.761719Q126.507175 82.566406 126.507175 80.839844L126.507175 80.839844Q126.507175 80.441406 126.706394 79.677734Q126.905613 78.914063 127.536472 78.183594Q128.167332 77.453125 129.429050 76.888672Q130.690769 76.324219 132.882175 76.324219L132.882175 76.324219Q134.940769 76.324219 137.032566 76.789063Q139.124363 77.253906 141.050144 78.017578Q142.975925 78.781250 144.768894 79.744141Q146.561863 80.707031 148.022800 81.703125L148.022800 81.703125Q150.413425 80.640625 152.837254 78.814453Q155.261082 76.988281 157.253269 74.332031Q159.245457 71.675781 160.507175 68.222656Q161.768894 64.769531 161.768894 60.453125L161.768894 60.453125Q161.768894 52.882813 157.585300 46.839844Q153.401707 40.796875 145.167332 37.609375L145.167332 37.609375Q141.182957 43.187500 137.729832 48.699219Q134.276707 54.210938 131.288425 59.722656Q128.300144 65.234375 125.677097 70.746094Q123.054050 76.257813 120.663425 81.902344L120.663425 81.902344Q115.151707 94.785156 109.905613 103.916016Q104.659519 113.046875 98.716160 118.824219Q92.772800 124.601563 85.766941 127.291016Q78.761082 129.980469 69.729832 129.980469L69.729832 129.980469Q62.757175 129.980469 57.710300 127.689453Q52.663425 125.398438 49.409519 121.414063Q46.155613 117.429688 44.595066 112.150391Q43.034519 106.871094 43.034519 100.894531L43.034519 100.894531Q43.034519 94.253906 45.159519 87.181641Q47.284519 80.109375 51.468113 73.070313L51.468113 73.070313Q54.124363 68.621094 58.042332 63.806641Q61.960300 58.992188 67.007175 54.310547Q72.054050 49.628906 78.263035 45.412109Q84.472019 41.195313 91.677097 38.041016Q98.882175 34.886719 107.083347 32.994141Q115.284519 31.101563 124.382175 31.101563L124.382175 31.101563Q129.960300 31.101563 134.575535 31.666016Q139.190769 32.230469 143.108738 33.292969L143.108738 33.292969Q144.636082 31.765625 146.196629 30.238281Q147.757175 28.710938 149.417332 27.183594L149.417332 27.183594ZM124.913425 57.066406L124.913425 57.066406Q128.432957 51.222656 132.251316 46.076172Q136.069675 40.929688 140.452488 36.148438L140.452488 36.148438Q137.929050 35.550781 135.106785 35.218750Q132.284519 34.886719 129.163425 34.886719L129.163425 34.886719Q119.136082 34.886719 109.407566 37.642578Q99.679050 40.398438 90.880222 45.312500Q82.081394 50.226563 74.577488 57Q67.073582 63.773438 61.595066 71.708984Q56.116550 79.644531 53.028660 88.476563Q49.940769 97.308594 49.940769 106.406250L49.940769 106.406250Q49.940769 110.921875 51.169285 114.607422Q52.397800 118.292969 54.854832 120.916016Q57.311863 123.539063 60.931004 124.966797Q64.550144 126.394531 69.264988 126.394531L69.264988 126.394531Q77.167332 126.394531 83.077488 123.439453Q88.987644 120.484375 93.602879 115.371094Q98.218113 110.257813 101.936863 103.451172Q105.655613 96.644531 109.208347 88.941406Q112.761082 81.238281 116.479832 73.070313Q120.198582 64.902344 124.913425 57.066406ZM143.507175 83.031250L143.507175 83.031250Q142.511082 82.300781 141.149754 81.669922Q139.788425 81.039063 138.327488 80.607422Q136.866550 80.175781 135.405613 79.910156Q133.944675 79.644531 132.882175 79.644531L132.882175 79.644531Q131.022800 79.644531 130.524754 80.076172Q130.026707 80.507813 130.026707 80.839844L130.026707 80.839844Q130.026707 81.437500 130.923191 81.902344Q131.819675 82.367188 133.181004 82.732422Q134.542332 83.097656 136.202488 83.296875Q137.862644 83.496094 139.456394 83.496094L139.456394 83.496094Q140.186863 83.496094 141.116550 83.429688Q142.046238 83.363281 143.507175 83.031250Z">
        </path>
        <path class="svg-logo-path-drawing" d="M182.089207 109.859375L182.089207 109.859375Q181.956394 110.656250 181.889988 111.453125Q181.823582 112.250000 181.823582 113.046875L181.823582 113.046875Q181.823582 115.437500 182.520847 117.595703Q183.218113 119.753906 184.579441 121.380859Q185.940769 123.007813 187.966160 123.937500Q189.991550 124.867188 192.581394 124.867188L192.581394 124.867188Q201.280613 124.867188 209.382175 118.957031Q217.483738 113.046875 225.518894 100.230469L225.518894 100.230469L227.776707 102.222656Q223.393894 109.527344 218.878269 114.541016Q214.362644 119.554688 209.880222 122.675781Q205.397800 125.796875 201.081394 127.191406Q196.764988 128.585938 192.847019 128.585938L192.847019 128.585938Q189.991550 128.585938 186.804050 127.789063Q183.616550 126.992188 180.927097 125.132813Q178.237644 123.273438 176.477879 120.152344Q174.718113 117.031250 174.718113 112.382813L174.718113 112.382813Q174.718113 107.402344 176.411472 102.787109Q178.104832 98.171875 180.827488 94.187500Q183.550144 90.203125 187.069675 86.916016Q190.589207 83.628906 194.208347 81.304688Q197.827488 78.980469 201.280613 77.685547Q204.733738 76.390625 207.389988 76.390625L207.389988 76.390625Q209.116550 76.390625 210.909519 76.921875Q212.702488 77.453125 214.130222 78.582031Q215.557957 79.710938 216.454441 81.570313Q217.350925 83.429688 217.350925 86.019531L217.350925 86.019531Q217.350925 89.539063 215.723972 92.626953Q214.097019 95.714844 211.374363 98.337891Q208.651707 100.960938 205.065769 103.052734Q201.479832 105.144531 197.561863 106.605469Q193.643894 108.066406 189.659519 108.929688Q185.675144 109.792969 182.089207 109.859375ZM182.620457 107.003906L182.620457 107.003906Q187.069675 106.539063 190.987644 105.144531Q194.905613 103.750000 198.159519 101.724609Q201.413425 99.699219 203.970066 97.308594Q206.526707 94.917969 208.253269 92.460938Q209.979832 90.003906 210.909519 87.746094Q211.839207 85.488281 211.839207 83.695313L211.839207 83.695313Q211.839207 81.902344 210.876316 80.839844Q209.913425 79.777344 208.585300 79.777344L208.585300 79.777344Q205.663425 79.777344 202.011082 81.869141Q198.358738 83.960938 194.706394 87.646484Q191.054050 91.332031 187.833347 96.312500Q184.612644 101.292969 182.620457 107.003906Z">
        </path>
        <path class="svg-logo-path-drawing" d="M273.597019 28.378906L273.597019 28.378906Q275.921238 28.378906 277.481785 29.507813Q279.042332 30.636719 279.042332 33.625000L279.042332 33.625000Q279.042332 35.683594 278.212254 38.539063Q277.382175 41.394531 275.954441 44.748047Q274.526707 48.101563 272.600925 51.787109Q270.675144 55.472656 268.450535 59.125000Q266.225925 62.777344 263.802097 66.230469Q261.378269 69.683594 258.987644 72.605469L258.987644 72.605469Q254.206394 78.515625 250.720066 82.566406Q247.233738 86.617188 244.710300 89.439453Q242.186863 92.261719 240.460300 94.021484Q238.733738 95.781250 237.405613 97.042969Q236.077488 98.304688 234.948582 99.333984Q233.819675 100.363281 232.624363 101.625000L232.624363 101.625000Q232.093113 104.148438 232.126316 106.439453Q232.159519 108.730469 232.159519 110.656250L232.159519 110.656250Q232.159519 116.433594 234.018894 119.222656Q235.878269 122.011719 239.264988 122.011719L239.264988 122.011719Q241.522800 122.011719 243.813816 120.849609Q246.104832 119.687500 248.362644 117.828125Q250.620457 115.968750 252.745457 113.611328Q254.870457 111.253906 256.763035 108.830078Q258.655613 106.406250 260.182957 104.148438Q261.710300 101.890625 262.839207 100.230469L262.839207 100.230469L265.296238 102.089844Q265.097019 102.355469 264.001316 104.181641Q262.905613 106.007813 261.112644 108.597656Q259.319675 111.187500 256.862644 114.142578Q254.405613 117.097656 251.550144 119.621094Q248.694675 122.144531 245.540379 123.804688Q242.386082 125.464844 239.132175 125.464844L239.132175 125.464844Q236.409519 125.464844 233.919285 124.435547Q231.429050 123.406250 229.536472 121.181641Q227.643894 118.957031 226.481785 115.503906Q225.319675 112.050781 225.319675 107.203125L225.319675 107.203125Q225.319675 101.160156 226.747410 94.552734Q228.175144 87.945313 230.632175 81.271484Q233.089207 74.597656 236.409519 68.089844Q239.729832 61.582031 243.481785 55.705078Q247.233738 49.828125 251.317722 44.814453Q255.401707 39.800781 259.352879 36.148438Q263.304050 32.496094 266.956394 30.437500Q270.608738 28.378906 273.597019 28.378906ZM233.819675 95.714844L233.819675 95.714844Q239.464207 89.871094 244.743504 83.861328Q250.022800 77.851563 254.638035 71.974609Q259.253269 66.097656 263.104832 60.552734Q266.956394 55.007813 269.679050 50.093750Q272.401707 45.179688 273.929050 41.128906Q275.456394 37.078125 275.456394 34.156250L275.456394 34.156250Q275.456394 33.625000 274.925144 32.728516Q274.393894 31.832031 273.663425 31.832031L273.663425 31.832031Q271.604832 31.832031 268.218113 34.554688Q264.831394 37.277344 260.880222 41.958984Q256.929050 46.640625 252.712254 52.882813Q248.495457 59.125000 244.776707 66.230469Q241.057957 73.335938 238.136082 80.906250Q235.214207 88.476563 233.819675 95.714844Z">
        </path>
        <path class="svg-logo-path-drawing" d="M457.210300 30.636719L457.210300 30.636719Q459.136082 30.636719 460.962254 31.267578Q462.788425 31.898438 464.216160 33.060547Q465.643894 34.222656 466.507175 35.916016Q467.370457 37.609375 467.370457 39.734375L467.370457 39.734375Q467.370457 43.851563 464.714207 49.097656Q462.057957 54.343750 457.807957 61.382813L457.807957 61.382813Q453.225925 68.886719 449.175144 76.357422Q445.124363 83.828125 441.638035 90.767578Q438.151707 97.707031 435.263035 103.849609Q432.374363 109.992188 430.249363 114.839844L430.249363 114.839844Q432.905613 115.171875 435.561863 115.371094Q438.218113 115.570313 440.343113 115.503906L440.343113 115.503906L440.475925 118.957031Q440.011082 118.957031 436.989597 118.923828Q433.968113 118.890625 428.788425 118.160156L428.788425 118.160156Q426.729832 122.941406 425.634129 125.597656Q424.538425 128.253906 424.538425 128.386719L424.538425 128.386719L416.636082 125.929688L420.620457 116.832031Q416.171238 115.835938 411.257175 114.507813Q406.343113 113.179688 401.263035 111.486328Q396.182957 109.792969 391.136082 107.667969Q386.089207 105.542969 381.440769 103.019531L381.440769 103.019531Q377.124363 108 372.077488 112.814453Q367.030613 117.628906 361.253269 121.447266Q355.475925 125.265625 349.001316 127.623047Q342.526707 129.980469 335.354832 129.980469L335.354832 129.980469Q328.979832 129.980469 322.638035 128.087891Q316.296238 126.195313 311.282566 122.576172Q306.268894 118.957031 303.147800 113.744141Q300.026707 108.531250 300.026707 101.890625L300.026707 101.890625Q300.026707 96.644531 301.985691 92.660156Q303.944675 88.675781 307.364597 86.019531Q310.784519 83.363281 315.399754 82.001953Q320.014988 80.640625 325.327488 80.640625L325.327488 80.640625Q329.378269 80.640625 333.727879 81.437500Q338.077488 82.234375 342.194675 84.093750Q346.311863 85.953125 349.964207 89.007813Q353.616550 92.062500 356.206394 96.578125L356.206394 96.578125L353.284519 98.437500Q353.218113 98.304688 352.520847 97.408203Q351.823582 96.511719 350.462254 95.216797Q349.100925 93.921875 346.975925 92.460938Q344.850925 91 341.895847 89.771484Q338.940769 88.542969 335.056004 87.712891Q331.171238 86.882813 326.257175 86.882813L326.257175 86.882813Q321.276707 86.882813 317.557957 88.576172Q313.839207 90.269531 311.348972 92.892578Q308.858738 95.515625 307.630222 98.769531Q306.401707 102.023438 306.401707 105.078125L306.401707 105.078125Q306.401707 108.664063 307.663425 111.619141Q308.925144 114.574219 311.083347 116.964844Q313.241550 119.355469 316.130222 121.115234Q319.018894 122.875000 322.239597 124.070313Q325.460300 125.265625 328.813816 125.863281Q332.167332 126.460938 335.354832 126.460938L335.354832 126.460938Q341.929050 126.460938 347.972019 124.302734Q354.014988 122.144531 359.393894 118.591797Q364.772800 115.039063 369.520847 110.523438Q374.268894 106.007813 378.319675 101.292969L378.319675 101.292969Q373.804050 98.570313 369.985691 95.416016Q366.167332 92.261719 363.378269 88.642578Q360.589207 85.023438 359.028660 80.873047Q357.468113 76.722656 357.468113 72.074219L357.468113 72.074219Q357.468113 68.222656 358.895847 64.835938Q360.323582 61.449219 362.813816 58.892578Q365.304050 56.335938 368.723972 54.841797Q372.143894 53.347656 376.061863 53.347656L376.061863 53.347656Q380.444675 53.347656 384.362644 54.708984Q388.280613 56.070313 391.800144 58.427734Q395.319675 60.785156 398.407566 64.039063Q401.495457 67.292969 404.218113 71.078125L404.218113 71.078125Q411.655613 62.777344 419.059910 55.439453Q426.464207 48.101563 433.304050 42.589844Q440.143894 37.078125 446.220066 33.857422Q452.296238 30.636719 457.210300 30.636719ZM406.276707 74.132813L406.276707 74.132813Q409.397800 78.914063 411.987644 84.027344Q414.577488 89.140625 416.669285 94.054688Q418.761082 98.968750 420.388035 103.384766Q422.014988 107.800781 423.210300 111.187500L423.210300 111.187500Q430.979832 94.253906 439.811863 77.984375Q448.643894 61.714844 459.667332 45.843750L459.667332 45.843750Q461.460300 43.187500 462.223972 41.427734Q462.987644 39.667969 462.987644 38.406250L462.987644 38.406250Q462.987644 36.281250 461.194675 35.185547Q459.401707 34.089844 457.077488 34.089844L457.077488 34.089844Q449.706394 34.089844 436.989597 44.150391Q424.272800 54.210938 406.276707 74.132813ZM363.511082 75.261719L363.511082 75.261719Q363.511082 78.781250 364.839207 81.935547Q366.167332 85.089844 368.491550 87.978516Q370.815769 90.867188 374.003269 93.423828Q377.190769 95.980469 380.909519 98.238281L380.909519 98.238281Q385.889988 92.195313 391.069675 86.085938Q396.249363 79.976563 401.561863 74L401.561863 74Q399.237644 70.945313 396.747410 68.322266Q394.257175 65.699219 391.534519 63.773438Q388.811863 61.847656 385.889988 60.785156Q382.968113 59.722656 379.847019 59.722656L379.847019 59.722656Q376.327488 59.722656 373.339207 60.917969Q370.350925 62.113281 368.159519 64.205078Q365.968113 66.296875 364.739597 69.119141Q363.511082 71.941406 363.511082 75.261719ZM420.288425 113.113281L420.288425 113.113281Q419.358738 110.125000 417.798191 105.875000Q416.237644 101.625000 414.145847 96.744141Q412.054050 91.863281 409.431004 86.750000Q406.807957 81.636719 403.686863 76.988281L403.686863 76.988281Q399.104832 82.167969 394.190769 87.878906Q389.276707 93.589844 383.964207 100.031250L383.964207 100.031250Q388.612644 102.621094 393.692722 104.712891Q398.772800 106.804688 403.587254 108.431641Q408.401707 110.058594 412.751316 111.253906Q417.100925 112.449219 420.288425 113.113281Z">
        </path>
        <path class="svg-logo-path-drawing" d="M493.534519 100.230469L495.991550 102.089844Q494.995457 103.550781 493.634129 106.041016Q492.272800 108.531250 490.479832 111.419922Q488.686863 114.308594 486.528660 117.296875Q484.370457 120.285156 481.813816 122.675781Q479.257175 125.066406 476.268894 126.593750Q473.280613 128.121094 469.893894 128.121094L469.893894 128.121094Q468.034519 128.121094 466.374363 127.556641Q464.714207 126.992188 463.452488 125.796875Q462.190769 124.601563 461.460300 122.841797Q460.729832 121.082031 460.729832 118.691406L460.729832 118.691406Q460.729832 115.437500 462.024754 111.884766Q463.319675 108.332031 465.046238 105.011719Q466.772800 101.691406 468.499363 98.935547Q470.225925 96.179688 471.022800 94.519531L471.022800 94.519531Q471.819675 92.859375 471.819675 91.664063L471.819675 91.664063Q471.819675 90.800781 471.255222 90.136719Q470.690769 89.472656 469.860691 88.841797Q469.030613 88.210938 468.134129 87.513672Q467.237644 86.816406 466.639988 85.820313L466.639988 85.820313Q464.979832 88.476563 463.253269 91.199219L463.253269 91.199219Q461.725925 93.523438 459.932957 96.412109Q458.139988 99.300781 456.479832 102.089844L456.479832 102.089844L454.089207 100.230469L468.300144 77.984375L470.225925 78.980469Q470.093113 79.378906 469.794285 80.242188Q469.495457 81.105469 469.495457 82.101563L469.495457 82.101563Q469.495457 82.832031 469.727879 83.529297Q469.960300 84.226563 470.690769 84.824219L470.690769 84.824219Q473.347019 87.214844 474.874363 88.509766Q476.401707 89.804688 477.098972 90.568359Q477.796238 91.332031 477.962254 91.830078Q478.128269 92.328125 478.128269 93.125000L478.128269 93.125000Q478.128269 93.921875 477.862644 95.050781Q477.597019 96.179688 476.966160 97.773438Q476.335300 99.367188 475.239597 101.525391Q474.143894 103.683594 472.483738 106.539063L472.483738 106.539063Q471.487644 108.265625 470.524754 110.025391Q469.561863 111.785156 468.798191 113.578125Q468.034519 115.371094 467.569675 117.164063Q467.104832 118.957031 467.104832 120.617188L467.104832 120.617188Q467.104832 121.878906 467.470066 122.642578Q467.835300 123.406250 468.432957 123.804688Q469.030613 124.203125 469.727879 124.335938Q470.425144 124.468750 471.089207 124.468750L471.089207 124.468750Q473.280613 124.468750 475.438816 123.173828Q477.597019 121.878906 479.688816 119.820313Q481.780613 117.761719 483.739597 115.138672Q485.698582 112.515625 487.491550 109.792969Q489.284519 107.070313 490.811863 104.580078Q492.339207 102.089844 493.534519 100.230469L493.534519 100.230469Z">
        </path>
        <path class="svg-logo-path-drawing" d="M495.393894 70.214844L507.014988 70.214844Q507.679050 69.085938 509.372410 66.296875Q511.065769 63.507813 513.356785 60.121094Q515.647800 56.734375 518.337254 53.314453Q521.026707 49.894531 523.616550 47.503906L523.616550 47.503906L526.604832 49.296875Q523.749363 54.011719 520.761082 59.291016Q517.772800 64.570313 514.850925 70.214844L514.850925 70.214844L536.499363 70.214844L535.171238 73.667969L513.057957 73.667969Q510.069675 79.644531 507.446629 85.554688Q504.823582 91.464844 502.831394 96.843750Q500.839207 102.222656 499.710300 106.904297Q498.581394 111.585938 498.581394 115.039063L498.581394 115.039063Q498.581394 119.355469 500.573582 121.248047Q502.565769 123.140625 505.487644 123.140625L505.487644 123.140625Q508.077488 123.140625 510.800144 121.580078Q513.522800 120.019531 516.145847 117.628906Q518.768894 115.238281 521.126316 112.382813Q523.483738 109.527344 525.309910 107.003906Q527.136082 104.480469 528.331394 102.587891Q529.526707 100.695313 529.792332 100.230469L529.792332 100.230469L532.249363 102.089844Q529.925144 105.941406 527.003269 110.257813Q524.081394 114.574219 520.528660 118.259766Q516.975925 121.945313 512.792332 124.369141Q508.608738 126.792969 503.761082 126.792969L503.761082 126.792969Q500.772800 126.792969 498.548191 125.730469Q496.323582 124.667969 494.796238 122.775391Q493.268894 120.882813 492.505222 118.292969Q491.741550 115.703125 491.741550 112.648438L491.741550 112.648438Q491.741550 110.656250 492.372410 107.003906Q493.003269 103.351563 494.530613 98.337891Q496.057957 93.324219 498.614597 87.082031Q501.171238 80.839844 505.089207 73.667969L505.089207 73.667969L494.065769 73.667969L495.393894 70.214844Z">
        </path>
    </g>
</svg>